<svg viewBox="0 0 256 256" fill="none" xmlns="http://www.w3.org/2000/svg">
<path fill-rule="evenodd" clip-rule="evenodd" d="M8.10199 100.914H20.488V131.129H39.82V141H8.10199V100.914ZM70.117 134.383H56.007L54.068 141H41.408L56.474 100.914H69.98L85.047 141H72.086L70.117 134.383ZM67.52 125.715L63.09 111.305L58.687 125.715H67.52ZM89.176 100.915H107.578C111.206 100.915 114.136 101.406 116.369 102.391C118.602 103.375 120.448 104.788 121.906 106.629C123.365 108.47 124.422 110.612 125.078 113.055C125.734 115.497 126.062 118.085 126.062 120.82C126.062 125.104 125.575 128.426 124.6 130.787C123.624 133.147 122.27 135.126 120.54 136.721C118.807 138.316 116.948 139.378 114.96 139.906C112.245 140.636 109.784 141 107.578 141H89.176V100.914V100.915ZM101.562 109.992V131.895H104.598C107.186 131.895 109.028 131.607 110.121 131.033C111.215 130.459 112.071 129.456 112.691 128.025C113.311 126.595 113.621 124.275 113.621 121.066C113.621 116.819 112.928 113.911 111.543 112.344C110.158 110.776 107.861 109.992 104.653 109.992H101.563H101.562ZM130.41 127.738L142.195 127C142.451 128.914 142.97 130.372 143.754 131.375C145.03 132.997 146.853 133.809 149.223 133.809C150.991 133.809 152.353 133.394 153.311 132.564C154.268 131.735 154.746 130.774 154.746 129.68C154.746 128.64 154.29 127.71 153.379 126.89C152.467 126.07 150.353 125.296 147.035 124.566C141.603 123.345 137.729 121.723 135.415 119.699C133.081 117.676 131.915 115.096 131.915 111.961C131.915 109.901 132.511 107.955 133.705 106.123C134.899 104.291 136.695 102.851 139.092 101.803C141.489 100.755 144.775 100.23 148.949 100.23C154.072 100.23 157.977 101.183 160.666 103.088C163.355 104.993 164.954 108.023 165.465 112.18L153.789 112.863C153.479 111.059 152.827 109.746 151.834 108.926C150.84 108.106 149.469 107.696 147.719 107.696C146.279 107.696 145.194 108.001 144.465 108.611C143.735 109.222 143.371 109.965 143.371 110.84C143.371 111.478 143.671 112.052 144.273 112.562C144.857 113.092 146.243 113.583 148.43 114.039C153.844 115.206 157.722 116.386 160.064 117.58C162.407 118.774 164.111 120.255 165.178 122.023C166.244 123.792 166.778 125.77 166.778 127.957C166.778 130.527 166.066 132.897 164.645 135.067C163.223 137.236 161.235 138.881 158.684 140.002C156.131 141.123 152.914 141.684 149.031 141.684C142.214 141.684 137.492 140.371 134.867 137.746C132.242 135.121 130.757 131.786 130.41 127.738V127.738ZM172.957 100.914H193.547C198.031 100.914 201.39 101.98 203.623 104.114C205.856 106.246 206.973 109.281 206.973 113.219C206.973 117.266 205.756 120.429 203.323 122.707C200.889 124.986 197.175 126.125 192.18 126.125H185.398V141H172.957V100.914V100.914ZM185.398 118.004H188.434C190.822 118.004 192.499 117.589 193.464 116.76C194.431 115.93 194.914 114.868 194.914 113.574C194.914 112.316 194.494 111.25 193.656 110.375C192.818 109.5 191.241 109.062 188.926 109.062H185.398V118.004V118.004ZM233.359 134.383H219.25L217.309 141H204.649L219.715 100.914H233.223L248.289 141H235.329L233.359 134.383V134.383ZM230.762 125.715L226.332 111.305L221.93 125.715H230.762Z" fill="black"/>
</svg>
