<svg width="16" height="16" viewBox="0 0 16 16" fill="none" xmlns="http://www.w3.org/2000/svg">
<g clip-path="url(#clip0_115_11)">
<path d="M15.854 0.145997C15.9232 0.215329 15.9705 0.303471 15.9901 0.399475C16.0097 0.495478 16.0006 0.595111 15.964 0.685997L10.145 15.233C10.0937 15.3611 10.0081 15.4726 9.89752 15.5552C9.78697 15.6377 9.65577 15.6882 9.51838 15.701C9.38098 15.7139 9.24271 15.6885 9.11879 15.6278C8.99486 15.5671 8.89009 15.4734 8.81599 15.357L5.63799 10.362L0.642993 7.184C0.526311 7.10998 0.432344 7.00517 0.371463 6.88112C0.310581 6.75708 0.285151 6.61863 0.297978 6.48105C0.310805 6.34347 0.361391 6.2121 0.444154 6.10145C0.526917 5.9908 0.638639 5.90517 0.766993 5.854L15.314 0.0369972C15.4049 0.000409439 15.5045 -0.00867028 15.6005 0.0108859C15.6965 0.0304421 15.7847 0.0777723 15.854 0.146997V0.145997ZM6.63599 10.07L9.39699 14.408L14.13 2.576L6.63599 10.07ZM13.423 1.869L1.59099 6.602L5.92999 9.362L13.424 1.869H13.423Z" fill="white"/>
</g>
<defs>
<clipPath id="clip0_115_11">
<rect width="16" height="16" fill="white"/>
</clipPath>
</defs>
</svg>
