<svg width="120" height="100" viewBox="0 0 238 205" fill="none" xmlns="http://www.w3.org/2000/svg">
<path d="M119 2.53907L141.306 54.598L141.689 55.4928L142.594 55.1336L200.975 31.9592L174.189 82.0235L173.621 83.0839L174.767 83.4482L234.699 102.5L174.767 121.552L173.621 121.916L174.189 122.977L200.975 173.041L142.594 149.866L141.689 149.507L141.306 150.402L119 202.461L96.6941 150.402L96.3107 149.507L95.406 149.866L37.0251 173.041L63.8115 122.977L64.3788 121.916L63.2327 121.552L3.30085 102.5L63.2327 83.4482L64.3788 83.0839L63.8115 82.0235L37.0251 31.9592L95.406 55.1336L96.3107 55.4928L96.6941 54.598L119 2.53907Z" fill="#FF7134" stroke="white" stroke-width="2"/>
<path d="M106.955 94.5455V112H104.909L95.3977 98.2955H95.2273V112H93.1136V94.5455H95.1591L104.705 108.284H104.875V94.5455H106.955ZM111.184 112V94.5455H121.718V96.4205H113.298V102.318H121.173V104.193H113.298V110.125H121.854V112H111.184ZM128.698 112L123.925 94.5455H126.073L129.721 108.761H129.891L133.607 94.5455H135.994L139.71 108.761H139.88L143.528 94.5455H145.675L140.903 112H138.721L134.869 98.0909H134.732L130.88 112H128.698Z" fill="white"/>
</svg>
